<svg width="18" height="18" viewBox="0 0 18 18" fill="none" xmlns="http://www.w3.org/2000/svg">
<path d="M0.703125 9.6875C0.234375 9.6875 0 9.50521 0 9.14062V8.35938C0 7.99479 0.234375 7.8125 0.703125 7.8125H7.79688V0.703125C7.79688 0.234375 7.97917 0 8.34375 0H9.125C9.48958 0 9.67188 0.234375 9.67188 0.703125V7.8125H16.7969C17.2656 7.8125 17.5 7.99479 17.5 8.35938V9.14062C17.5 9.50521 17.2656 9.6875 16.7969 9.6875H9.67188V16.7969C9.67188 17.2656 9.48958 17.5 9.125 17.5H8.34375C7.97917 17.5 7.79688 17.2656 7.79688 16.7969V9.6875H0.703125Z" fill="white"/>
</svg>
