<svg width="23" height="17" viewBox="0 0 23 17" fill="none" xmlns="http://www.w3.org/2000/svg">
<path d="M22.4434 2.01262C21.6252 2.35385 20.7534 2.58024 19.8446 2.69017C20.7796 2.15933 21.4933 1.32486 21.8289 0.319159C20.957 0.81363 19.9945 1.16262 18.9688 1.35755C18.1408 0.51899 16.9613 0 15.6739 0C13.177 0 11.1664 1.92762 11.1664 4.29046C11.1664 4.63046 11.1965 4.95738 11.2708 5.26877C7.52174 5.09469 4.20363 3.3857 1.9748 0.782163C1.58549 1.42416 1.35732 2.15933 1.35732 2.95048C1.35732 4.43594 2.16171 5.75303 3.36056 6.51517C2.6361 6.50209 1.92495 6.30185 1.32295 5.98678C1.32295 5.99986 1.32295 6.01702 1.32295 6.03377C1.32295 8.11832 2.88618 9.84978 4.93669 10.2486C4.56973 10.3443 4.16925 10.39 3.75417 10.39C3.46541 10.39 3.17408 10.3745 2.90036 10.3169C3.48475 12.0156 5.14294 13.2645 7.11482 13.305C5.58037 14.4467 3.6317 15.1345 1.52276 15.1345C1.15279 15.1345 0.798288 15.119 0.443359 15.0756C2.44102 16.3004 4.80864 17 7.36189 17C15.6615 17 20.1991 10.4615 20.1991 4.79392C20.1991 4.6043 20.1922 4.42123 20.1827 4.23937C21.0778 3.63538 21.8302 2.88101 22.4434 2.01262Z" fill="white"/>
</svg>
